<!DOCTYPE svg PUBLIC "-//W3C//DTD SVG 1.1//EN" "http://www.w3.org/Graphics/SVG/1.1/DTD/svg11.dtd">
<!-- Uploaded to: SVG Repo, www.svgrepo.com, Transformed by: SVG Repo Mixer Tools -->
<svg version="1.0" id="Layer_1" xmlns="http://www.w3.org/2000/svg" xmlns:xlink="http://www.w3.org/1999/xlink" width="256px" height="256px" viewBox="-7.68 -7.68 79.36 79.36" enable-background="new 0 0 64 64" xml:space="preserve" fill="#000000" stroke="#000000" stroke-width="0.00064">
<g id="SVGRepo_bgCarrier" stroke-width="0" transform="translate(1.2800000000000011,1.2800000000000011), scale(0.96)">
<path transform="translate(-7.68, -7.68), scale(2.48)" d="M16,31.826635155388537C18.324533919933206,31.757015243962893,20.418048255807186,30.517469142760902,22.427453780591296,29.346745300877583C24.341351606178787,28.23166634458545,26.373360998762116,27.071036545449573,27.467783617409275,25.145252264345487C28.532412961583013,23.2718932700419,28.82281750368615,20.944579795883087,28.403534017928457,18.831025698968407C28.01810862146875,16.888145873233608,25.392642331611036,15.866570304336722,25.235397437349903,13.892080801525372C25.038030131276358,11.413783010862543,28.973033845066805,8.833925017470017,27.450840229548803,6.868259636590754C25.9421616445786,4.920046718656089,22.55430713601163,7.9574243062409655,20.167019347271133,7.347095165460603C18.4068191299797,6.89708595782013,17.816597849621687,3.9687851139019057,16,3.9407611123340978C14.194154908635845,3.912902989699995,13.34935425580954,6.340413835880996,11.770603017413443,7.217566671060531C10.302992043346292,8.03297007061791,8.45754094123689,7.922069986912229,7.0875148206345795,8.892530240647254C5.544636254094387,9.985430808490925,4.4028435173730305,11.511851051922168,3.4243059672033453,13.129679901087012C2.2122567700809688,15.133576590970435,-0.4753632412747608,17.457096856680984,0.6726093013421881,19.498376906396924C2.0234702601808,21.900425233207397,6.646585369293712,19.936026444466183,8.432431846625983,22.03493422086973C10.130160877749226,24.030277443750606,7.782349750238207,27.664455404514577,9.38442419329027,29.73738471327904C10.816524076642779,31.59038338893616,13.659145682251513,31.89674386357494,16,31.826635155388537" fill="#7ed0ec" strokewidth="0"/>
</g>
<g id="SVGRepo_tracerCarrier" stroke-linecap="round" stroke-linejoin="round"/>
<g id="SVGRepo_iconCarrier"> <g> <path fill="#F76D57" d="M32,52.789l-12-18C18.5,32,16,28.031,16,24c0-8.836,7.164-16,16-16s16,7.164,16,16 c0,4.031-2.055,8-4,10.789L32,52.789z"/> <g> <path fill="#394240" d="M32,0C18.746,0,8,10.746,8,24c0,5.219,1.711,10.008,4.555,13.93c0.051,0.094,0.059,0.199,0.117,0.289 l16,24C29.414,63.332,30.664,64,32,64s2.586-0.668,3.328-1.781l16-24c0.059-0.09,0.066-0.195,0.117-0.289 C54.289,34.008,56,29.219,56,24C56,10.746,45.254,0,32,0z M44,34.789l-12,18l-12-18C18.5,32,16,28.031,16,24 c0-8.836,7.164-16,16-16s16,7.164,16,16C48,28.031,45.945,32,44,34.789z"/> <circle fill="#394240" cx="32" cy="24" r="8"/> </g> </g> </g>
</svg>